<svg xmlns="http://www.w3.org/2000/svg" width="301" height="409" viewBox="0 0 301 409" version="1.1"><path d="M 123 1.500 C 123 2.325, 122.199 3, 121.221 3 C 120.242 3, 118.793 3.900, 118 5 C 116.786 6.685, 115.411 7, 109.279 7 C 105.093 7, 102 6.575, 102 6 C 102 5.450, 100.875 5, 99.500 5 C 98.125 5, 97 4.550, 97 4 C 97 3.450, 94.525 3, 91.500 3 C 88.475 3, 86 3.450, 86 4 C 86 4.550, 85.100 5, 84 5 C 82.900 5, 82 5.450, 82 6 C 82 6.550, 81.100 7, 80 7 C 78.667 7, 78 7.667, 78 9 C 78 10.100, 77.550 11, 77 11 C 76.450 11, 76 12.575, 76 14.500 C 76 17.747, 75.776 18, 72.901 18 C 70.748 18, 68.948 18.915, 67 21 C 64.768 23.390, 63.364 24, 60.099 24 L 56 24 56 29.500 C 56 32.525, 56.450 35, 57 35 C 57.550 35, 58 36.575, 58 38.500 C 58 41.333, 57.619 42, 56 42 C 54.889 42, 54 41.333, 54 40.500 C 54 39.452, 52.944 39, 50.500 39 C 48.575 39, 47 38.550, 47 38 C 47 37.428, 43.976 37, 39.929 37 C 32.363 37, 30 38.173, 30 41.929 C 30 43.068, 29.550 44, 29 44 C 28.450 44, 28 45.350, 28 47 C 28 48.650, 27.550 50, 27 50 C 26.450 50, 26 51.575, 26 53.500 C 26 55.944, 25.548 57, 24.500 57 C 23.675 57, 23 57.801, 23 58.779 C 23 59.758, 22.100 61.207, 21 62 C 19.900 62.793, 19 64.467, 19 65.721 C 19 66.974, 18.550 68, 18 68 C 17.385 68, 17 73, 17 81 C 17 89, 17.385 94, 18 94 C 20.012 94, 18.922 97.271, 16 100 C 14.350 101.541, 13 103.297, 13 103.901 C 13 104.506, 12.325 105, 11.500 105 C 10.667 105, 10 105.889, 10 107 C 10 108.100, 9.550 109, 9 109 C 8.436 109, 8 111.833, 8 115.500 C 8 119.167, 8.436 122, 9 122 C 9.564 122, 10 124.833, 10 128.500 C 10 132.167, 9.564 135, 9 135 C 8.412 135, 8 138.500, 8 143.500 C 8 148.500, 8.412 152, 9 152 C 9.550 152, 10 154.025, 10 156.500 C 10 160.333, 9.704 161, 8 161 C 6.900 161, 6 161.450, 6 162 C 6 162.550, 5.100 163, 4 163 C 2.095 163, 2 163.667, 2 177 C 2 185.667, 2.381 191, 3 191 C 3.564 191, 4 193.833, 4 197.500 C 4 201.167, 4.436 204, 5 204 C 5.550 204, 6 205.026, 6 206.279 C 6 207.533, 6.900 209.207, 8 210 C 9.855 211.337, 10 212.589, 10 227.221 C 10 240.580, 10.230 243, 11.500 243 C 12.433 243, 13 243.944, 13 245.500 C 13 246.875, 13.450 248, 14 248 C 14.550 248, 15 248.900, 15 250 C 15 251.100, 15.450 252, 16 252 C 16.550 252, 17 253.575, 17 255.500 C 17 257.425, 17.450 259, 18 259 C 18.550 259, 19 260.350, 19 262 C 19 263.650, 19.450 265, 20 265 C 20.550 265, 21 266.125, 21 267.500 C 21 268.875, 21.450 270, 22 270 C 22.550 270, 23 271.350, 23 273 C 23 275, 23.500 276, 24.500 276 C 25.548 276, 26 277.056, 26 279.500 C 26 281.425, 26.450 283, 27 283 C 27.550 283, 28 283.695, 28 284.545 C 28 286.546, 32.454 291, 34.455 291 C 35.305 291, 36 291.450, 36 292 C 36 292.550, 37.575 293, 39.500 293 C 42.833 293, 43 293.167, 43 296.500 C 43 299.333, 43.381 300, 45 300 C 46.333 300, 47 300.667, 47 302 C 47 303.100, 47.482 304, 48.071 304 C 50.102 304, 52 306.865, 52 309.929 C 52 311.618, 52.450 313, 53 313 C 53.550 313, 54 313.801, 54 314.779 C 54 315.758, 54.900 317.207, 56 318 C 57.100 318.793, 58 320.017, 58 320.721 C 58 321.424, 58.450 322, 59 322 C 59.550 322, 60 322.900, 60 324 C 60 325.100, 60.482 326, 61.071 326 C 63.102 326, 65 328.865, 65 331.929 C 65 333.618, 65.450 335, 66 335 C 66.637 335, 67 343.093, 67 357.279 C 67 378.411, 66.897 379.633, 65 381 C 63.900 381.793, 63 383.467, 63 384.721 C 63 386.080, 62.395 387, 61.500 387 C 60.321 387, 60 388.389, 60 393.500 C 60 398.611, 60.321 400, 61.500 400 C 62.333 400, 63 400.889, 63 402 C 63 403.100, 63.450 404, 64 404 C 64.550 404, 65 405.125, 65 406.500 C 65 408.750, 65.400 409, 69 409 C 73.429 409, 73.460 408.948, 71.901 403.993 C 71.296 402.072, 70.502 397.575, 70.137 394 C 69.649 389.229, 69.105 387.579, 68.091 387.798 C 66.980 388.038, 66.858 387.060, 67.465 382.798 C 67.879 379.884, 68.570 371.650, 69 364.500 C 69.846 350.408, 70.593 346.264, 72.661 344.196 C 73.397 343.460, 74 343.164, 74 343.539 C 74 343.915, 74.834 343.192, 75.853 341.933 L 77.707 339.644 80.349 344.152 C 81.802 346.631, 83.899 351.300, 85.009 354.526 C 87.367 361.380, 88.379 363.025, 96.035 372.450 C 103.176 381.242, 104.448 382.381, 110.013 384.963 C 112.481 386.108, 113.487 386.852, 112.250 386.616 C 107.972 385.801, 110.020 387.864, 115.538 389.928 C 118.583 391.068, 121.546 392, 122.121 392 C 124.347 392, 122.181 389.437, 118.925 388.217 L 115.500 386.935 118.947 387.482 C 131.809 389.523, 132.720 389.453, 136.504 386.130 C 139.987 383.073, 140.260 383.008, 147.289 383.591 C 151.255 383.921, 157.679 385.047, 161.564 386.095 C 170.729 388.567, 176.615 388.532, 180.799 385.981 C 182.614 384.874, 183.858 383.579, 183.563 383.102 C 183.268 382.624, 185.734 381.222, 189.042 379.984 C 192.351 378.747, 197.047 376.417, 199.479 374.806 C 204.635 371.391, 211.741 361.166, 215.521 351.724 C 216.932 348.200, 219.636 343.783, 221.530 341.908 C 223.424 340.034, 226.817 335.711, 229.070 332.302 C 235.531 322.528, 233.434 319.596, 224.011 325.227 C 220.515 327.316, 217.390 330.239, 215.398 333.283 C 213.679 335.911, 211.977 338.356, 211.616 338.717 C 210.829 339.504, 201.038 334.853, 201.016 333.683 C 201.007 333.233, 202.012 333.141, 203.250 333.478 C 205.088 333.980, 204.863 333.532, 202.017 331.029 C 197.092 326.697, 194.358 326.242, 178 327.029 C 170.025 327.412, 163.073 327.338, 162.550 326.863 C 161.083 325.531, 158.414 325.817, 150.837 328.118 L 143.863 330.236 137.682 328.224 C 132.827 326.643, 130.427 326.385, 126.500 327.020 C 123.750 327.465, 118.105 327.583, 113.956 327.282 C 108.119 326.859, 105.698 327.105, 103.256 328.368 C 101.520 329.265, 98.255 330, 96 330 C 93.745 330, 90.662 330.641, 89.148 331.424 C 85.184 333.473, 81.817 331.546, 71.136 321.115 C 60.881 311.099, 58.339 307.360, 53.406 295.035 C 50.059 286.673, 48 283.239, 48 286.020 C 48 286.767, 46.880 286.943, 44.750 286.532 C 41.838 285.971, 41.682 286.052, 43.250 287.313 C 46.016 289.538, 45.317 290.306, 41.047 289.733 C 32.365 288.569, 28.227 282.341, 19.556 257.390 C 15.074 244.494, 13.853 238.173, 16.112 239.569 C 17.686 240.542, 18.967 238.089, 18.985 234.066 C 19.005 229.534, 22.410 222.654, 25.433 221.036 C 31.341 217.874, 35.776 222.939, 36.694 233.895 C 37.166 239.517, 37.568 240.725, 38.886 240.468 C 39.774 240.295, 40.781 240.119, 41.125 240.077 C 42.288 239.934, 43.003 233.777, 44.019 215.158 C 45.021 196.774, 48.010 177.888, 51.466 168.095 C 52.432 165.359, 52.980 160.623, 52.914 155.595 C 52.726 141.344, 56.140 127.099, 60.777 122.794 C 62.275 121.403, 66.792 118.559, 70.815 116.475 C 76.214 113.677, 79.711 110.905, 84.168 105.889 C 87.490 102.152, 91.389 98.320, 92.833 97.374 C 94.386 96.356, 99.552 95.152, 105.479 94.426 C 118.065 92.883, 129.807 91.276, 142 89.426 C 147.728 88.557, 160.235 87.922, 173.500 87.827 L 195.500 87.670 204.558 91.356 C 209.540 93.383, 216.143 95.454, 219.232 95.956 C 226.252 97.099, 229.864 98.942, 233.746 103.363 C 238.117 108.342, 239.418 113.058, 238.445 120.399 C 237.253 129.395, 237.877 140.372, 239.979 147.349 C 244.188 161.321, 250.951 194.392, 252.383 208 C 254.103 224.351, 255.037 227.735, 258.533 230.290 C 260.499 231.726, 261.400 231.856, 263.098 230.948 C 264.878 229.995, 265.086 229.315, 264.409 226.658 C 263.119 221.598, 263.387 214.513, 264.980 211.536 C 266.833 208.075, 274.103 203, 277.208 203 C 283.039 203, 285.726 208.063, 286.120 219.793 C 286.341 226.386, 287.334 228.537, 288.402 224.739 C 288.996 222.629, 289.095 222.607, 290.119 224.346 C 291.823 227.238, 290.209 236.616, 286.543 245.129 C 284.736 249.325, 282.689 255.175, 281.993 258.129 C 279.559 268.467, 275.567 273.653, 265.506 279.549 L 260.933 282.229 258.933 279.923 C 257.833 278.655, 257.166 277.010, 257.450 276.269 C 258.246 274.194, 255.771 271, 253.366 271 C 250.863 271, 250.007 272.729, 249.983 277.832 C 249.948 285.210, 247.153 294.855, 243.107 301.565 C 238.417 309.340, 237.064 315.612, 239.315 319.138 C 240.594 321.142, 240.764 325.894, 240.432 350.500 C 240.077 376.933, 240.226 380.366, 242.115 389.281 C 243.256 394.660, 244.034 401.298, 243.844 404.031 L 243.500 409.001 247.750 409.001 L 252 409 252 400 C 252 392.667, 251.722 391, 250.500 391 C 249.667 391, 249 390.111, 249 389 C 249 387.900, 248.550 387, 248 387 C 247.417 387, 247 383.667, 247 379 C 247 374.333, 247.417 371, 248 371 C 248.550 371, 249 368.750, 249 366 C 249 361.667, 248.733 361, 247 361 C 245.889 361, 245 360.333, 245 359.500 C 245 358.675, 244.550 358, 244 358 C 243.381 358, 243 352.667, 243 344 C 243 330.667, 243.095 330, 245 330 C 246.100 330, 247 329.550, 247 329 C 247 328.450, 249.025 328, 251.500 328 C 253.975 328, 256 327.550, 256 327 C 256 326.450, 256.707 326, 257.571 326 C 259.777 326, 262 323.526, 262 321.071 C 262 319.897, 262.649 319, 263.500 319 C 264.700 319, 265 317.500, 265 311.500 C 265 305.500, 264.700 304, 263.500 304 C 262.321 304, 262 302.611, 262 297.500 C 262 292.389, 262.321 291, 263.500 291 C 264.583 291, 265 289.889, 265 287 C 265 283.667, 265.333 283, 267 283 C 268.111 283, 269 282.333, 269 281.500 C 269 280.667, 269.889 280, 271 280 C 272.100 280, 273 279.550, 273 279 C 273 278.450, 273.465 278, 274.033 278 C 275.887 278, 282 271.120, 282 269.033 C 282 267.915, 282.450 267, 283 267 C 283.550 267, 284 264.525, 284 261.500 C 284 258.475, 284.450 256, 285 256 C 285.550 256, 286 254.650, 286 253 C 286 251.350, 286.482 250, 287.071 250 C 288.836 250, 291 247.285, 291 245.071 C 291 243.932, 291.450 243, 292 243 C 292.588 243, 293 239.500, 293 234.500 C 293 229.500, 293.412 226, 294 226 C 294.550 226, 295 223.525, 295 220.500 C 295 217.475, 295.450 215, 296 215 C 296.625 215, 297 209, 297 199 C 297 189, 297.375 183, 298 183 C 298.550 183, 299 180.525, 299 177.500 C 299 174.475, 299.450 172, 300 172 C 300.597 172, 301 168.134, 301 162.401 C 301 153.025, 300.930 152.737, 298 150 C 295 147.198, 295 147.197, 295 135.599 C 295 128.533, 294.609 124, 294 124 C 293.450 124, 293 123.199, 293 122.221 C 293 121.242, 292.100 119.793, 291 119 C 289.536 117.945, 289 116.411, 289 113.279 C 289 110.142, 288.600 109, 287.500 109 C 286.348 109, 286 107.722, 286 103.500 C 286 100.475, 285.550 98, 285 98 C 284.450 98, 284 97.100, 284 96 C 284 94.900, 283.550 94, 283 94 C 282.450 94, 282 92.606, 282 90.901 C 282 88.748, 281.085 86.948, 279 85 C 277.350 83.459, 276 81.478, 276 80.599 C 276 79.719, 275.325 79, 274.500 79 C 273.567 79, 273 78.056, 273 76.500 C 273 75.125, 272.550 74, 272 74 C 271.450 74, 271 73.281, 271 72.401 C 271 71.522, 269.650 69.541, 268 68 C 266.350 66.459, 265 64.703, 265 64.099 C 265 63.494, 264.518 63, 263.929 63 C 262.335 63, 260 60.367, 260 58.571 C 260 57.707, 259.550 57, 259 57 C 258.450 57, 258 56.100, 258 55 C 258 53.667, 257.333 53, 256 53 C 254.889 53, 254 52.333, 254 51.500 C 254 50.389, 252.833 50, 249.500 50 C 245.667 50, 245 49.704, 245 48 C 245 46.900, 244.550 46, 244 46 C 243.450 46, 243 45.100, 243 44 C 243 42.900, 242.550 42, 242 42 C 241.450 42, 241 41.518, 241 40.929 C 241 39.544, 238.456 37, 237.071 37 C 236.482 37, 236 36.550, 236 36 C 236 35.450, 235.100 35, 234 35 C 232.900 35, 232 34.550, 232 34 C 232 33.450, 230.168 33, 227.929 33 C 223.681 33, 221 31.274, 221 28.538 C 221 26.241, 214.446 20, 212.033 20 C 210.915 20, 210 19.550, 210 19 C 210 18.450, 209.100 18, 208 18 C 206.900 18, 206 17.550, 206 17 C 206 16.450, 204.425 16, 202.500 16 C 200.575 16, 199 15.538, 199 14.974 C 199 13.100, 190.087 5, 188.026 5 C 186.912 5, 186 4.550, 186 4 C 186 3.450, 184.200 3, 182 3 C 179.800 3, 178 3.450, 178 4 C 178 4.550, 176.875 5, 175.500 5 C 174.125 5, 173 5.450, 173 6 C 173 6.564, 170.167 7, 166.500 7 C 162.833 7, 160 7.436, 160 8 C 160 8.564, 157.167 9, 153.500 9 C 149.833 9, 147 8.564, 147 8 C 147 7.450, 145.749 7, 144.221 7 C 142.589 7, 140.847 6.174, 140 5 C 139.207 3.900, 137.533 3, 136.279 3 C 134.920 3, 134 2.395, 134 1.500 C 134 0.348, 132.722 0, 128.500 0 C 124.278 0, 123 0.348, 123 1.500 M 111.007 9.706 C 104.501 11.426, 102.241 12.902, 104.203 14.146 C 105.168 14.759, 105.052 14.973, 103.750 14.985 C 98.791 15.028, 104.920 22.075, 110.043 22.220 C 112.729 22.297, 114.013 21.517, 117.146 17.907 C 121.301 13.120, 121.576 11.408, 118.500 9.496 C 116.889 8.495, 115.433 8.535, 111.007 9.706 M 82.958 14.078 C 81.745 16.345, 82.566 20.319, 83.827 18.281 C 84.353 17.430, 85.665 17.618, 88.713 18.983 C 92.281 20.580, 93.050 20.645, 94.055 19.433 C 94.996 18.300, 94.587 17.417, 92.009 15.009 C 88.241 11.488, 84.547 11.109, 82.958 14.078 M 65.332 29.578 C 64.597 31.492, 67.057 34.209, 68.624 33.214 C 69.346 32.756, 69.447 31.694, 68.906 30.250 C 67.928 27.635, 66.202 27.310, 65.332 29.578 M 31.250 49.662 C 30.563 49.940, 30.007 50.917, 30.015 51.833 C 30.027 53.139, 30.215 53.208, 30.883 52.155 C 31.514 51.160, 31.904 51.481, 32.382 53.387 C 33.403 57.453, 37.854 59.173, 45.368 58.403 C 49.650 57.965, 51.955 58.119, 52.423 58.876 C 53.399 60.454, 56.527 60.275, 57.951 58.559 C 58.945 57.361, 58.522 57.001, 55.437 56.422 C 53.224 56.007, 50.672 54.551, 49.114 52.814 C 46.533 49.938, 46.432 49.916, 41.075 51.071 C 36.350 52.090, 35.496 52.032, 34.464 50.620 C 33.203 48.896, 33.173 48.886, 31.250 49.662 M 31.475 78.041 C 31.121 78.613, 29.970 78.808, 28.916 78.473 C 27.213 77.933, 26.981 78.429, 26.833 82.933 C 26.742 85.720, 26.629 88.781, 26.583 89.736 C 26.537 90.691, 27.175 91.593, 28 91.739 C 29.608 92.025, 37.406 78.739, 36.287 77.620 C 35.297 76.630, 32.178 76.903, 31.475 78.041 M 181.260 139.498 C 179.141 141.013, 179.107 141.233, 180.625 143.550 C 182.393 146.248, 184.577 146.605, 188.467 144.833 C 190.430 143.939, 190.879 143.179, 190.390 141.583 C 189.571 138.911, 189.825 139.111, 186.427 138.458 C 184.560 138.100, 182.689 138.476, 181.260 139.498 M 94.326 144.750 C 94.498 147.047, 95.049 147.550, 97.670 147.806 C 99.996 148.033, 101.210 147.539, 102.362 145.893 C 104.488 142.858, 103.638 142, 98.501 142 C 94.338 142, 94.130 142.137, 94.326 144.750 M 108 164.813 C 107.175 165.081, 106.265 165.655, 105.978 166.090 C 105.691 166.524, 100.966 167.626, 95.478 168.539 C 83.184 170.584, 71 175.879, 71 179.176 C 71 181.155, 71.365 181.241, 77.250 180.642 C 80.688 180.293, 86.495 179.893, 90.155 179.753 C 95.961 179.532, 97.134 179.149, 99.357 176.750 C 102.511 173.345, 105.258 173.285, 112.129 176.468 C 116.953 178.703, 117.543 178.781, 118.376 177.293 C 119.068 176.056, 118.602 175.054, 116.486 173.234 C 114.286 171.342, 113.974 170.634, 115.049 169.970 C 117.851 168.238, 111.580 163.650, 108 164.813 M 174.250 164.662 C 173.563 164.940, 173 165.722, 173 166.400 C 173 167.350, 174.036 167.393, 177.516 166.586 C 180.834 165.816, 181.564 165.352, 180.266 164.839 C 178.196 164.020, 176.001 163.956, 174.250 164.662 M 177.500 167.669 C 171.378 169.727, 172.108 169.135, 171.024 172.917 C 169.707 177.507, 171.930 177.895, 177.835 174.106 C 183.746 170.313, 185.322 170.258, 190.252 173.674 C 193.774 176.115, 195.058 176.372, 204.970 176.619 C 214.197 176.849, 215.921 176.648, 216.447 175.278 C 217.319 173.004, 216.235 172.229, 208.350 169.487 C 198.859 166.186, 184.437 165.336, 177.500 167.669 M 260.015 215.250 C 260.024 216.488, 260.467 218.175, 261 219 C 261.721 220.116, 261.973 219.539, 261.985 216.750 C 261.993 214.688, 261.550 213, 261 213 C 260.450 213, 260.007 214.012, 260.015 215.250 M 152.667 214.667 C 150.673 216.660, 152.404 218.695, 157.977 220.909 C 162.875 222.854, 164.229 223.055, 165.477 222.019 C 167.841 220.057, 167.295 218.151, 163.750 215.989 C 160.616 214.078, 154.040 213.293, 152.667 214.667 M 127.133 216.837 C 125.385 218.202, 124.945 219.250, 125.450 220.843 C 126.231 223.304, 128.654 223.514, 134 221.585 C 136.683 220.616, 137.500 219.759, 137.500 217.911 C 137.500 215.807, 136.990 215.467, 133.500 215.245 C 130.821 215.074, 128.718 215.600, 127.133 216.837 M 183.667 251.667 C 183.300 252.033, 183 253.661, 183 255.283 C 183 257.772, 182.687 258.137, 181 257.617 C 179.900 257.277, 178.139 256.733, 177.086 256.406 C 175.794 256.005, 174.828 256.452, 174.116 257.783 C 173.208 259.481, 173.884 260.539, 178.994 265.413 C 184.260 270.436, 190.043 274, 192.926 274 C 194.720 274, 199 265.409, 199 261.808 C 199 256.231, 193 251, 186.602 251 C 185.354 251, 184.033 251.300, 183.667 251.667 M 100.530 254.282 C 95.960 256.870, 91.782 262.483, 92.208 265.460 C 92.369 266.582, 92.801 267.275, 93.169 267 C 93.538 266.725, 94.956 267.549, 96.321 268.832 C 99.623 271.934, 105.906 272.763, 109.293 270.544 C 115.746 266.315, 116.294 260.393, 109.990 263.004 C 107.330 264.106, 106.641 264.069, 105.327 262.756 C 103.939 261.367, 104.003 260.997, 105.980 259.020 C 107.537 257.463, 107.998 256.126, 107.568 254.413 C 106.820 251.436, 105.595 251.413, 100.530 254.282 M 251 308.450 C 251 309.248, 250.254 310.318, 249.342 310.828 C 248.211 311.462, 247.537 313.540, 247.219 317.378 C 246.804 322.382, 246.958 322.996, 248.626 322.964 C 249.657 322.944, 251.770 321.256, 253.323 319.214 C 255.475 316.382, 256.008 314.810, 255.567 312.595 C 254.668 308.084, 251 304.755, 251 308.450 M 236.328 340.500 C 236.333 344.350, 236.513 345.802, 236.730 343.728 C 236.946 341.653, 236.943 338.503, 236.722 336.728 C 236.501 334.952, 236.324 336.650, 236.328 340.500 M 167.762 389.707 C 169.006 389.946, 170.806 389.937, 171.762 389.687 C 172.718 389.437, 171.700 389.241, 169.500 389.252 C 167.300 389.263, 166.518 389.468, 167.762 389.707" stroke="none" fill="#2a1c0a" fill-rule="evenodd"/><path d="M 111.007 9.706 C 104.501 11.426, 102.241 12.902, 104.203 14.146 C 105.168 14.759, 105.052 14.973, 103.750 14.985 C 98.791 15.028, 104.920 22.075, 110.043 22.220 C 112.729 22.297, 114.013 21.517, 117.146 17.907 C 121.301 13.120, 121.576 11.408, 118.500 9.496 C 116.889 8.495, 115.433 8.535, 111.007 9.706 M 82.958 14.078 C 81.745 16.345, 82.566 20.319, 83.827 18.281 C 84.353 17.430, 85.665 17.618, 88.713 18.983 C 92.281 20.580, 93.050 20.645, 94.055 19.433 C 94.996 18.300, 94.587 17.417, 92.009 15.009 C 88.241 11.488, 84.547 11.109, 82.958 14.078 M 65.332 29.578 C 64.597 31.492, 67.057 34.209, 68.624 33.214 C 69.346 32.756, 69.447 31.694, 68.906 30.250 C 67.928 27.635, 66.202 27.310, 65.332 29.578 M 31.250 49.662 C 30.563 49.940, 30.007 50.917, 30.015 51.833 C 30.027 53.139, 30.215 53.208, 30.883 52.155 C 31.514 51.160, 31.904 51.481, 32.382 53.387 C 33.403 57.453, 37.854 59.173, 45.368 58.403 C 49.650 57.965, 51.955 58.119, 52.423 58.876 C 53.399 60.454, 56.527 60.275, 57.951 58.559 C 58.945 57.361, 58.522 57.001, 55.437 56.422 C 53.224 56.007, 50.672 54.551, 49.114 52.814 C 46.533 49.938, 46.432 49.916, 41.075 51.071 C 36.350 52.090, 35.496 52.032, 34.464 50.620 C 33.203 48.896, 33.173 48.886, 31.250 49.662 M 31.475 78.041 C 31.121 78.613, 29.970 78.808, 28.916 78.473 C 27.213 77.933, 26.981 78.429, 26.833 82.933 C 26.742 85.720, 26.629 88.781, 26.583 89.736 C 26.537 90.691, 27.175 91.593, 28 91.739 C 29.608 92.025, 37.406 78.739, 36.287 77.620 C 35.297 76.630, 32.178 76.903, 31.475 78.041 M 164.500 87.986 C 154.050 88.347, 142.350 89.160, 138.500 89.792 C 128.735 91.396, 117.237 93.014, 105.479 94.439 C 99.527 95.160, 94.392 96.352, 92.833 97.374 C 91.389 98.320, 87.490 102.152, 84.168 105.889 C 79.711 110.905, 76.214 113.677, 70.815 116.475 C 66.792 118.559, 62.275 121.403, 60.777 122.794 C 56.140 127.099, 52.726 141.344, 52.914 155.595 C 52.980 160.623, 52.432 165.359, 51.466 168.095 C 48.010 177.888, 45.021 196.774, 44.019 215.158 C 43.003 233.777, 42.288 239.934, 41.125 240.077 C 40.781 240.119, 39.774 240.295, 38.886 240.468 C 37.568 240.725, 37.166 239.517, 36.694 233.895 C 35.776 222.939, 31.341 217.874, 25.433 221.036 C 22.410 222.654, 19.005 229.534, 18.985 234.066 C 18.967 238.089, 17.686 240.542, 16.112 239.569 C 13.853 238.173, 15.074 244.494, 19.556 257.390 C 28.227 282.341, 32.365 288.569, 41.047 289.733 C 45.317 290.306, 46.016 289.538, 43.250 287.313 C 41.682 286.052, 41.838 285.971, 44.750 286.532 C 46.880 286.943, 48 286.767, 48 286.020 C 48 283.239, 50.059 286.673, 53.406 295.035 C 58.339 307.360, 60.881 311.099, 71.136 321.115 C 81.817 331.546, 85.184 333.473, 89.148 331.424 C 90.662 330.641, 93.745 330, 96 330 C 98.255 330, 101.520 329.265, 103.256 328.368 C 105.698 327.105, 108.119 326.859, 113.956 327.282 C 118.105 327.583, 123.750 327.465, 126.500 327.020 C 130.427 326.385, 132.827 326.643, 137.682 328.224 L 143.863 330.236 150.837 328.118 C 158.414 325.817, 161.083 325.531, 162.550 326.863 C 163.072 327.338, 170.025 327.412, 178 327.029 C 194.358 326.242, 197.092 326.697, 202.017 331.029 C 204.863 333.532, 205.088 333.980, 203.250 333.478 C 202.012 333.141, 201.007 333.233, 201.016 333.683 C 201.038 334.853, 210.829 339.504, 211.616 338.717 C 211.977 338.356, 213.679 335.911, 215.398 333.283 C 217.390 330.239, 220.515 327.316, 224.011 325.227 C 233.434 319.596, 235.531 322.528, 229.070 332.302 C 226.817 335.711, 223.424 340.034, 221.530 341.908 C 219.636 343.783, 216.932 348.200, 215.521 351.724 C 211.741 361.166, 204.635 371.391, 199.479 374.806 C 197.047 376.417, 192.351 378.747, 189.042 379.984 C 185.734 381.222, 183.268 382.624, 183.563 383.102 C 183.858 383.579, 182.614 384.874, 180.799 385.981 C 176.615 388.532, 170.729 388.567, 161.564 386.095 C 157.679 385.047, 151.255 383.921, 147.289 383.591 C 140.260 383.008, 139.987 383.073, 136.504 386.130 C 132.720 389.453, 131.809 389.523, 118.947 387.482 L 115.500 386.935 118.925 388.217 C 122.181 389.437, 124.347 392, 122.121 392 C 121.546 392, 118.583 391.068, 115.538 389.928 C 110.020 387.864, 107.972 385.801, 112.250 386.616 C 113.487 386.852, 112.481 386.108, 110.013 384.963 C 104.448 382.381, 103.176 381.242, 96.035 372.450 C 88.379 363.025, 87.367 361.380, 85.009 354.526 C 83.899 351.300, 81.802 346.631, 80.349 344.152 L 77.707 339.644 75.853 341.933 C 74.834 343.192, 74 343.915, 74 343.539 C 74 343.164, 73.397 343.460, 72.661 344.196 C 70.593 346.264, 69.846 350.408, 69 364.500 C 68.570 371.650, 67.879 379.884, 67.465 382.798 C 66.854 387.083, 66.977 388.040, 68.105 387.798 C 69.107 387.584, 69.575 388.766, 69.765 392 C 69.911 394.475, 70.766 399.315, 71.665 402.756 L 73.300 409.011 158.400 408.756 L 243.500 408.500 243.810 403.622 C 243.981 400.940, 243.202 394.415, 242.081 389.122 C 240.233 380.400, 240.079 376.786, 240.432 350.500 C 240.764 325.894, 240.594 321.142, 239.315 319.138 C 237.064 315.612, 238.417 309.340, 243.107 301.565 C 247.153 294.855, 249.948 285.210, 249.983 277.832 C 250.007 272.729, 250.863 271, 253.366 271 C 255.771 271, 258.246 274.194, 257.450 276.269 C 257.166 277.010, 257.833 278.655, 258.933 279.923 L 260.933 282.229 265.506 279.549 C 275.567 273.653, 279.559 268.467, 281.993 258.129 C 282.689 255.175, 284.736 249.325, 286.543 245.129 C 290.209 236.616, 291.823 227.238, 290.119 224.346 C 289.095 222.607, 288.996 222.629, 288.402 224.739 C 287.334 228.537, 286.341 226.386, 286.120 219.793 C 285.726 208.063, 283.039 203, 277.208 203 C 274.103 203, 266.833 208.075, 264.980 211.536 C 263.387 214.513, 263.119 221.598, 264.409 226.658 C 265.086 229.315, 264.878 229.995, 263.098 230.948 C 261.400 231.856, 260.499 231.726, 258.533 230.290 C 255.037 227.735, 254.103 224.351, 252.383 208 C 250.951 194.392, 244.188 161.321, 239.979 147.349 C 237.877 140.372, 237.253 129.395, 238.445 120.399 C 239.418 113.058, 238.117 108.342, 233.746 103.363 C 229.864 98.942, 226.252 97.099, 219.232 95.956 C 216.143 95.454, 209.765 93.504, 205.058 91.624 C 194.755 87.509, 190.190 87.099, 164.500 87.986 M 181.260 139.498 C 179.141 141.013, 179.107 141.233, 180.625 143.550 C 182.393 146.248, 184.577 146.605, 188.467 144.833 C 190.430 143.939, 190.879 143.179, 190.390 141.583 C 189.571 138.911, 189.825 139.111, 186.427 138.458 C 184.560 138.100, 182.689 138.476, 181.260 139.498 M 94.326 144.750 C 94.498 147.047, 95.049 147.550, 97.670 147.806 C 99.996 148.033, 101.210 147.539, 102.362 145.893 C 104.488 142.858, 103.638 142, 98.501 142 C 94.338 142, 94.130 142.137, 94.326 144.750 M 108 164.813 C 107.175 165.081, 106.265 165.655, 105.978 166.090 C 105.691 166.524, 100.966 167.626, 95.478 168.539 C 83.184 170.584, 71 175.879, 71 179.176 C 71 181.155, 71.365 181.241, 77.250 180.642 C 80.688 180.293, 86.495 179.893, 90.155 179.753 C 95.961 179.532, 97.134 179.149, 99.357 176.750 C 102.511 173.345, 105.258 173.285, 112.129 176.468 C 116.953 178.703, 117.543 178.781, 118.376 177.293 C 119.068 176.056, 118.602 175.054, 116.486 173.234 C 114.286 171.342, 113.974 170.634, 115.049 169.970 C 117.851 168.238, 111.580 163.650, 108 164.813 M 174.250 164.662 C 173.563 164.940, 173 165.722, 173 166.400 C 173 167.350, 174.036 167.393, 177.516 166.586 C 180.834 165.816, 181.564 165.352, 180.266 164.839 C 178.196 164.020, 176.001 163.956, 174.250 164.662 M 177.500 167.669 C 171.378 169.727, 172.108 169.135, 171.024 172.917 C 169.707 177.507, 171.930 177.895, 177.835 174.106 C 183.746 170.313, 185.322 170.258, 190.252 173.674 C 193.774 176.115, 195.058 176.372, 204.970 176.619 C 214.197 176.849, 215.921 176.648, 216.447 175.278 C 217.319 173.004, 216.235 172.229, 208.350 169.487 C 198.859 166.186, 184.437 165.336, 177.500 167.669 M 260.015 215.250 C 260.024 216.488, 260.467 218.175, 261 219 C 261.721 220.116, 261.973 219.539, 261.985 216.750 C 261.993 214.688, 261.550 213, 261 213 C 260.450 213, 260.007 214.012, 260.015 215.250 M 152.667 214.667 C 150.673 216.660, 152.404 218.695, 157.977 220.909 C 162.875 222.854, 164.229 223.055, 165.477 222.019 C 167.841 220.057, 167.295 218.151, 163.750 215.989 C 160.616 214.078, 154.040 213.293, 152.667 214.667 M 127.133 216.837 C 125.385 218.202, 124.945 219.250, 125.450 220.843 C 126.231 223.304, 128.654 223.514, 134 221.585 C 136.683 220.616, 137.500 219.759, 137.500 217.911 C 137.500 215.807, 136.990 215.467, 133.500 215.245 C 130.821 215.074, 128.718 215.600, 127.133 216.837 M 183.667 251.667 C 183.300 252.033, 183 253.661, 183 255.283 C 183 257.772, 182.687 258.137, 181 257.617 C 179.900 257.277, 178.139 256.733, 177.086 256.406 C 175.794 256.005, 174.828 256.452, 174.116 257.783 C 173.208 259.481, 173.884 260.539, 178.994 265.413 C 184.260 270.436, 190.043 274, 192.926 274 C 194.720 274, 199 265.409, 199 261.808 C 199 256.231, 193 251, 186.602 251 C 185.354 251, 184.033 251.300, 183.667 251.667 M 100.530 254.282 C 95.960 256.870, 91.782 262.483, 92.208 265.460 C 92.369 266.582, 92.801 267.275, 93.169 267 C 93.538 266.725, 94.956 267.549, 96.321 268.832 C 99.623 271.934, 105.906 272.763, 109.293 270.544 C 115.746 266.315, 116.294 260.393, 109.990 263.004 C 107.330 264.106, 106.641 264.069, 105.327 262.756 C 103.939 261.367, 104.003 260.997, 105.980 259.020 C 107.537 257.463, 107.998 256.126, 107.568 254.413 C 106.820 251.436, 105.595 251.413, 100.530 254.282 M 251 308.450 C 251 309.248, 250.254 310.318, 249.342 310.828 C 248.211 311.462, 247.537 313.540, 247.219 317.378 C 246.804 322.382, 246.958 322.996, 248.626 322.964 C 249.657 322.944, 251.770 321.256, 253.323 319.214 C 255.475 316.382, 256.008 314.810, 255.567 312.595 C 254.668 308.084, 251 304.755, 251 308.450 M 236.328 340.500 C 236.333 344.350, 236.513 345.802, 236.730 343.728 C 236.946 341.653, 236.943 338.503, 236.722 336.728 C 236.501 334.952, 236.324 336.650, 236.328 340.500 M 167.762 389.707 C 169.006 389.946, 170.806 389.937, 171.762 389.687 C 172.718 389.437, 171.700 389.241, 169.500 389.252 C 167.300 389.263, 166.518 389.468, 167.762 389.707" stroke="none" fill="#a06f4f" fill-rule="evenodd"/></svg>